<svg xmlns="http://www.w3.org/2000/svg" xmlns:svg="http://www.w3.org/2000/svg" xmlns:xlink="http://www.w3.org/1999/xlink" id="Foreground" width="32" height="32" x="0" y="0" enable-background="new 0 0 16 16" version="1.0" viewBox="0 0 23.273 23.273" xml:space="preserve"><metadata id="metadata2399"/><defs id="defs2397"><linearGradient id="linearGradient3173"><stop style="stop-color:#bdae93;stop-opacity:1" id="stop3175" offset="0"/><stop style="stop-color:#bdae93;stop-opacity:1" id="stop3177" offset="1"/></linearGradient><filter id="filter16494-4" width="1.42" height="1.418" x="-.21" y="-.209" color-interpolation-filters="sRGB"><feGaussianBlur id="feGaussianBlur16496-8" stdDeviation="1.328"/></filter><radialGradient id="radialGradient16504-1" cx="7.658" cy="5.819" r="8.693" fx="7.658" fy="5.819" gradientTransform="matrix(1.0474339,0,0,1.0517402,-0.3632615,-0.42032492)" gradientUnits="userSpaceOnUse" xlink:href="#linearGradient16498-6"/><linearGradient id="linearGradient16498-6"><stop style="stop-color:#282828;stop-opacity:1" id="stop16500-8" offset="0"/><stop style="stop-color:#1d2021;stop-opacity:1" id="stop16502-0" offset="1"/></linearGradient><filter id="filter16524-9" width="1.426" height="1.426" x="-.213" y="-.213" color-interpolation-filters="sRGB"><feGaussianBlur id="feGaussianBlur16526-0" stdDeviation=".71"/></filter></defs><g style="display:inline" id="g16402-8" transform="translate(4.7533483,2.8238929)"><g id="g3175-4"><path style="opacity:.52994014;color:#000;fill:#000;fill-opacity:1;fill-rule:nonzero;stroke:#000;stroke-width:2.18181825;stroke-linecap:butt;stroke-linejoin:miter;stroke-miterlimit:4;stroke-opacity:1;stroke-dasharray:none;stroke-dashoffset:0;marker:none;visibility:visible;display:inline;overflow:visible;filter:url(#filter16494-4);enable-background:accumulate" id="path16480-5" d="m 7.65625,0.125 c -4.3973151,0 -7.96875,3.5820002 -7.96875,8 0,4.418001 3.5714349,8 7.96875,8 4.397316,0 7.96875,-3.581999 7.96875,-8 0,-4.4179998 -3.571434,-8 -7.96875,-8 z" transform="translate(0,1.028519)" xlink:href="#path2394-32"/><path id="path2394-32" d="m -0.30428257,8.1237596 c 0,-4.4179998 3.56522987,-7.9999996 7.96254497,-7.9999996 4.3973156,0 7.9625456,3.5819998 7.9625456,7.9999996 0,4.4180014 -3.56523,8.0000004 -7.9625456,8.0000004 -4.3973151,0 -7.96254497,-3.581999 -7.96254497,-8.0000004 z" clip-rule="evenodd" style="color:#000;fill:url(#radialGradient16504-1);fill-opacity:1;fill-rule:nonzero;stroke:#bdae93;stroke-width:1.4545455;stroke-linecap:butt;stroke-linejoin:miter;stroke-miterlimit:4;stroke-opacity:1;stroke-dasharray:none;stroke-dashoffset:0;marker:none;visibility:visible;display:inline;overflow:visible;enable-background:accumulate"/></g><g style="fill:#fff;fill-opacity:1;display:inline" id="g27275-6-6" transform="matrix(0.72727273,0,0,0.72727273,2.368236,2.1803254)"><g style="fill:#fff;fill-opacity:1;display:inline" id="g27277-1-1" transform="translate(-41,-760)"><path style="font-size:medium;font-style:normal;font-variant:normal;font-weight:400;font-stretch:normal;text-indent:0;text-align:start;text-decoration:none;line-height:normal;letter-spacing:normal;word-spacing:normal;text-transform:none;direction:ltr;block-progression:tb;writing-mode:lr-tb;text-anchor:start;color:#bebebe;fill:#000;fill-opacity:1;fill-rule:nonzero;stroke:none;stroke-width:1.78124988;marker:none;visibility:visible;display:inline;overflow:visible;filter:url(#filter16524-9);enable-background:new;font-family:Andale Mono;-inkscape-font-specification:Andale Mono" id="path16506-5" d="m 44.21875,764.1875 0,1 c -0.02191,0.28075 0.07051,0.55537 0.28125,0.75 l 2.28125,2.28125 -2.28125,2.25 c -0.18819,0.18817 -0.281253,0.45346 -0.28125,0.71875 l 0,1 1,0 c 0.26529,0 0.530586,-0.0931 0.71875,-0.28125 L 48.21875,769.625 50.5,771.90625 c 0.188164,0.18815 0.453449,0.28124 0.71875,0.28125 l 1,0 0,-1 c -8e-6,-0.2653 -0.09306,-0.53058 -0.28125,-0.71875 l -2.25,-2.25 2.28125,-2.28125 c 0.21566,-0.19935 0.25,-0.46353 0.25,-0.75 l 0,-1 -1,0 c -0.240828,0.007 -0.421875,0.082 -0.6875,0.3125 l -2.3125,2.28125 L 45.9375,764.5 c -0.17763,-0.18392 -0.432549,-0.3013 -0.6875,-0.3125 -0.01046,-4.6e-4 -0.02088,-1.2e-4 -0.03125,0 l -1,0 z" transform="translate(0,1.3535534)" xlink:href="#path27279-0-5"/><path style="font-size:medium;font-style:normal;font-variant:normal;font-weight:400;font-stretch:normal;text-indent:0;text-align:start;text-decoration:none;line-height:normal;letter-spacing:normal;word-spacing:normal;text-transform:none;direction:ltr;block-progression:tb;writing-mode:lr-tb;text-anchor:start;color:#bebebe;fill:#bdae93;fill-opacity:1;fill-rule:nonzero;stroke:none;stroke-width:1.78124988;marker:none;visibility:visible;display:inline;overflow:visible;enable-background:new;font-family:Andale Mono;-inkscape-font-specification:Andale Mono" id="path27279-0-5" d="m 44.226475,764.17222 1,0 c 0.01037,-1.2e-4 0.02079,-4.6e-4 0.03125,0 0.254951,0.0112 0.50987,0.12858 0.6875,0.3125 l 2.28125,2.28125 2.3125,-2.28125 c 0.265625,-0.2305 0.446672,-0.3055 0.6875,-0.3125 l 1,0 0,1 c 0,0.28647 -0.03434,0.55065 -0.25,0.75 l -2.28125,2.28125 2.25,2.25 c 0.188188,0.18817 0.281242,0.45345 0.28125,0.71875 l 0,1 -1,0 c -0.265301,-1e-5 -0.530586,-0.0931 -0.71875,-0.28125 l -2.28125,-2.28125 -2.28125,2.28125 c -0.188164,0.18819 -0.45346,0.28125 -0.71875,0.28125 l -1,0 0,-1 c -3e-6,-0.26529 0.09306,-0.53058 0.28125,-0.71875 l 2.28125,-2.25 -2.28125,-2.28125 c -0.210742,-0.19463 -0.30316,-0.46925 -0.28125,-0.75 l 0,-1 z"/></g></g></g></svg>